<svg width="82" height="24" viewBox="0 0 82 24" fill="none" xmlns="http://www.w3.org/2000/svg">
<path d="M12.792 15.5102L16.4 10.2857V15.5102H12.792ZM16.4 0.0544218L0 23.9456H6.83333L9.348 20.4082H16.4547V23.9456H22.304V0.0544218H16.4ZM51.6053 10.6667C50.84 10.7755 49.9653 10.8299 48.216 10.7755V5.4966C49.9107 5.4966 50.7853 5.44218 51.5507 5.65986C52.316 5.87755 52.972 6.85714 53.0813 8.21769C52.972 9.57823 52.4253 10.5034 51.6053 10.6667ZM33.1827 10.6667C32.4173 10.7755 31.5427 10.8299 29.7933 10.7755V5.4966C31.488 5.4966 32.3627 5.44218 33.128 5.65986C33.8933 5.87755 34.5493 6.85714 34.6587 8.21769C34.5493 9.57823 34.0027 10.5034 33.1827 10.6667ZM60.4067 0V23.3469L55.2133 15.4014C58.2747 13.7143 59.2587 11.2653 59.4227 7.72789C59.368 5.65986 58.548 3.10204 56.8533 1.79592C54.448 0 51.6053 0 48.8173 0H41.984V23.2925L36.7907 15.4014C39.852 13.7143 40.8907 11.3197 41 7.78231C40.9453 5.71429 40.0707 3.10204 38.376 1.79592C35.9707 0 33.1827 0 30.34 0H23.5067V23.9456H29.848V16.7075L34.932 23.9456H48.2707V16.7075L53.3547 23.9456H66.584V0H60.4067ZM75.1667 9.30612C71.7227 9.30612 68.88 7.29252 68.88 4.84354C68.88 2.34014 71.7227 0.326531 75.1667 0.326531C78.6107 0.326531 81.4533 2.34014 81.4533 4.84354C81.4533 7.29252 78.6107 9.30612 75.1667 9.30612ZM75.3307 0C71.668 0 68.6067 2.17687 68.6067 4.78912C68.6067 7.40136 71.6133 9.57823 75.3307 9.57823C78.9933 9.57823 82 7.40136 82 4.78912C82 2.17687 78.9933 0 75.3307 0ZM78.72 1.57823C79.1573 1.79592 79.704 2.12245 80.032 2.5034C79.868 2.5034 79.8133 2.5034 79.8133 2.82993V6.7483C79.8133 6.96599 79.9773 6.96599 80.1413 7.02041C79.868 7.40136 79.4307 7.72789 78.884 8.05442C79.1027 7.45578 79.048 7.18367 79.048 6.47619V3.21088C78.9933 2.01361 78.7747 1.57823 78.72 1.57823ZM73.964 4.62585H73.636V1.7415C73.636 1.41497 73.8 1.03401 74.0733 1.03401C74.456 1.03401 74.5107 1.41497 74.5107 1.7415V4.02721C74.5107 4.29932 74.2373 4.62585 73.964 4.62585ZM75.3307 7.02041V5.93197C75.3307 5.11565 74.8387 4.95238 74.456 4.73469C75.0573 4.35374 75.4947 3.7551 75.4947 3.26531C75.4947 2.77551 75.5493 2.28571 75.4947 1.79592C75.44 1.36054 75.3307 1.14286 75.0027 0.92517C74.8387 0.816327 74.5107 0.761905 74.128 0.816327C73.636 0.92517 73.144 0.979592 72.5973 1.19728C72.816 1.41497 72.816 1.7415 72.816 2.01361V7.67347C72.816 8.05442 72.7613 8.32653 72.652 8.4898C73.144 8.65306 73.4173 8.76191 73.964 8.81633C73.7453 8.21769 73.636 7.94558 73.636 7.34694V4.95238H73.964C74.0733 4.95238 74.292 5.0068 74.3467 5.06122C74.5107 5.17007 74.456 5.71429 74.456 6.09524V7.34694C74.5107 8.05442 74.5107 8.27211 74.948 8.87075C75.1667 8.81633 75.6587 8.54422 75.6587 7.45578C75.3307 7.40136 75.3307 7.29252 75.3307 7.02041ZM77.6813 4.02721C77.6267 4.29932 77.408 4.57143 77.08 4.62585H76.752V1.95918C76.752 1.63265 76.8613 1.19728 77.1893 1.19728C77.5173 1.19728 77.6267 1.63265 77.6267 1.95918V4.02721H77.6813ZM78.4467 6.63946V5.76871C78.4467 5.22449 78.0093 4.89796 77.736 4.73469C77.9 4.57143 78.2827 4.46258 78.392 4.13605C78.6653 3.42857 78.72 2.28571 78.3373 1.63265C77.9547 1.03401 76.6427 0.761905 75.7133 0.761905C75.8227 0.870748 75.9867 1.03401 75.9867 1.46939V7.45578C75.9867 7.83673 75.932 8.43537 75.5493 8.87075C76.096 8.87075 76.8067 8.70748 77.244 8.59864C76.8613 8.21769 76.8067 8.16327 76.8067 7.56463V4.95238H77.1893C77.4627 4.95238 77.6267 5.06122 77.6267 5.38775V5.76871L77.6813 7.2381C77.736 7.61905 78.1187 8 78.392 8.21769C78.6107 7.83674 78.7747 7.45578 78.7747 7.07483C78.556 6.96599 78.4467 6.91156 78.4467 6.63946ZM71.2307 4.68027H70.3013C70.356 4.19048 70.4107 4.02721 70.5747 3.64626C70.7387 3.26531 70.9027 3.04762 71.2307 2.5034V4.68027ZM71.2307 6.96599C71.2307 7.18367 71.0667 7.5102 70.848 7.67347C71.2853 7.94558 71.7773 8.27211 72.2147 8.38095C72.16 8.16327 72.1053 8.21769 72.1053 6.63946V2.72109C72.16 1.46939 72.16 1.52381 72.2147 1.30612C71.7773 1.46939 71.4493 1.68707 71.012 1.90476C71.176 1.95918 71.2307 2.01361 71.1213 2.12245C70.5747 2.9932 70.028 3.7551 69.7 4.95238C69.536 5.60544 69.5907 6.53061 70.1373 7.12925C70.3013 7.29252 70.5747 7.29252 70.7933 7.02041C70.9573 6.7483 70.9573 6.09524 70.9027 6.04082C70.848 6.09524 70.7387 6.14966 70.6293 6.14966C70.52 6.09524 70.4653 6.09524 70.356 5.93197C70.2467 5.71429 70.2467 5.44218 70.2467 4.95238H71.2307V6.36735C71.2307 6.31293 71.2307 6.96599 71.2307 6.96599Z" fill="#0059A7"/>
</svg>
