<svg width="24" height="24" viewBox="0 0 24 24" fill="none" xmlns="http://www.w3.org/2000/svg">
<path d="M7.07477 8.51116C6.4479 9.13797 5.90777 9.67803 5.53341 10.1687C5.33528 10.4284 5.16092 10.7024 5.03516 11.0001H5.00002V11.0873C4.89225 11.368 4.82843 11.6698 4.82843 12.0001C4.82843 12.3305 4.89225 12.6323 5.00002 12.913V13.0001H5.03516C5.16092 13.2979 5.33528 13.5719 5.53341 13.8316C5.90777 14.3223 6.4479 14.8623 7.07477 15.4891L11.364 19.7783L12.7782 18.3641L8.53554 14.1215C8.06715 13.6531 7.71244 13.297 7.44441 13.0001L20.0564 13.0001V11.0001L7.44441 11.0001C7.71244 10.7033 8.06715 10.3472 8.53554 9.87883L12.7782 5.63618L11.364 4.22197L7.07477 8.51116Z" fill="#6F6F6F"/>
</svg>
