<svg width="24" height="24" viewBox="0 0 24 24" fill="none" xmlns="http://www.w3.org/2000/svg">
<path d="M16.9253 15.4888C17.5521 14.862 18.0923 14.322 18.4666 13.8313C18.6647 13.5716 18.8391 13.2976 18.9649 12.9999H19V12.9127C19.1078 12.632 19.1716 12.3302 19.1716 11.9999C19.1716 11.6695 19.1078 11.3677 19 11.087V10.9999H18.9649C18.8391 10.7021 18.6647 10.4281 18.4666 10.1684C18.0923 9.67774 17.5521 9.13767 16.9253 8.51087L12.6361 4.22168L11.2219 5.63589L15.4645 9.87853C15.9329 10.3469 16.2876 10.703 16.5556 10.9999L3.94366 10.9999V12.9999L16.5556 12.9999C16.2876 13.2967 15.9329 13.6528 15.4645 14.1212L11.2219 18.3638L12.6361 19.778L16.9253 15.4888Z" fill="#6F6F6F"/>
</svg>
