<svg width="100" height="22" viewBox="0 0 100 22" fill="none" xmlns="http://www.w3.org/2000/svg">
<g clip-path="url(#clip0_108_529)">
<path d="M16.3275 19.0838C11.6781 19.0838 7.91012 15.3138 7.91012 10.6636C7.91012 6.01308 11.6781 2.2467 16.3275 2.2467C17.9662 2.2467 19.4963 2.71408 20.7887 3.5242L16.3275 10.6636L24.7262 5.81408C23.8137 4.3602 22.505 3.10745 20.9225 2.15683C18.9088 0.951203 16.1075 0.205078 13.01 0.205078C8.5915 0.205078 4.71513 1.8107 2.55338 4.2152C0.952875 5.9927 0 8.22983 0 10.6635C0 13.0988 0.952875 15.3376 2.55338 17.1163C4.72075 19.5238 8.53938 21.1201 12.885 21.1201C17.23 21.1201 21.0475 19.5226 23.2162 17.1163C23.335 16.9838 23.45 16.8501 23.5588 16.7113L23.2313 15.4838C21.7075 17.6588 19.1838 19.0838 16.3275 19.0838Z" fill="#CC0000"/>
<path d="M44.1725 20.6137L40.6475 7.46373C40.0813 5.33873 38.1463 3.77686 35.8425 3.77686C35.245 3.77686 34.6725 3.88361 34.1413 4.07686L26.5525 6.83636H34.3575L35.6913 11.8174C34.3975 10.7039 32.7125 10.0264 30.8675 10.0264C27.2038 10.0264 24.2375 12.4815 24.2375 15.51C24.2375 18.5387 27.2038 20.9975 30.8675 20.9975C33.505 20.9975 35.8375 19.7062 37.2763 17.7225L38.05 20.6137H44.1725ZM33.42 18.5712C31.73 18.5712 30.36 17.2025 30.36 15.51C30.36 13.82 31.73 12.45 33.42 12.45C35.11 12.45 36.4813 13.82 36.4813 15.51C36.4813 17.2025 35.11 18.5712 33.42 18.5712Z" fill="#CC0000"/>
<path d="M58.545 3.7793C58.0825 3.7793 57.645 3.88155 57.255 4.06467L52.3825 6.33542C52.1412 4.88492 50.8812 3.7793 49.3612 3.7793C48.9012 3.7793 48.4625 3.88155 48.0675 4.06467L42.1187 6.83655H46.3012V20.614H52.4237V8.3693C52.4237 7.52442 53.1075 6.83667 53.955 6.83667C54.7975 6.83667 55.4862 7.52442 55.4862 8.3693V20.614H61.6062V6.83655C61.6062 5.14692 60.235 3.77942 58.545 3.77942" fill="#CC0000"/>
<path d="M96.94 3.7793C96.4763 3.7793 96.0363 3.88155 95.64 4.06467L90.7725 6.33542C90.5325 4.88492 89.2725 3.7793 87.7525 3.7793C87.2925 3.7793 86.8538 3.88155 86.4575 4.06467L80.5113 6.83655H84.6925V20.614H90.8138V8.3693C90.8138 7.52442 91.4988 6.83667 92.3463 6.83667C93.1913 6.83667 93.875 7.52442 93.875 8.3693V20.614H100V6.83655C100 5.14692 98.6275 3.77942 96.94 3.77942" fill="#CC0000"/>
<path d="M81.5013 12.45C81.5013 17.2389 77.62 21.1202 72.8325 21.1202C68.0412 21.1202 64.1575 17.2389 64.1575 12.45C64.1575 7.66242 68.0412 3.7793 72.8325 3.7793C77.62 3.7793 81.5013 7.66255 81.5013 12.45ZM73.1913 6.4108C72.9188 5.39055 71.87 4.78492 70.85 5.05917C69.8312 5.3323 69.2225 6.38167 69.4962 7.4018L72.47 18.4889C72.745 19.5102 73.7912 20.1152 74.8112 19.8452C75.8312 19.5689 76.4375 18.5202 76.1637 17.5002L73.1913 6.4108Z" fill="#CC0000"/>
</g>
<defs>
<clipPath id="clip0_108_529">
<rect width="100" height="20.9158" fill="white" transform="translate(0 0.205078)"/>
</clipPath>
</defs>
</svg>
