<svg width="20" height="20" viewBox="0 0 20 20" fill="none" xmlns="http://www.w3.org/2000/svg">
<path fill-rule="evenodd" clip-rule="evenodd" d="M15.9564 4.37484H4.44596L3.46248 2.612C3.35209 2.41413 3.14325 2.2915 2.91667 2.2915H1.66667C1.32149 2.2915 1.04167 2.57133 1.04167 2.9165C1.04167 3.26168 1.32149 3.5415 1.66667 3.5415H2.54967L3.52025 5.28121L5.75864 10.2339L5.76094 10.239L5.95809 10.6752L3.71073 13.0724C3.54913 13.2447 3.49855 13.4935 3.57999 13.7153C3.66144 13.9371 3.86098 14.094 4.09572 14.1208L6.14417 14.3549C8.70639 14.6477 11.2936 14.6477 13.8559 14.3549L15.9043 14.1208C16.2473 14.0816 16.4935 13.7718 16.4543 13.4289C16.4151 13.0859 16.1053 12.8397 15.7624 12.8789L13.7139 13.113C11.246 13.395 8.75401 13.395 6.2861 13.113L5.47317 13.0201L7.12265 11.2606C7.1386 11.2436 7.15342 11.2259 7.16711 11.2077L7.79445 11.2893C8.67356 11.4037 9.56219 11.4261 10.4459 11.3562C12.5072 11.1932 14.4175 10.2124 15.7512 8.6324L16.233 8.06171C16.2491 8.04255 16.2641 8.02243 16.2779 8.00146L17.1757 6.63325C17.8121 5.66344 17.1164 4.37484 15.9564 4.37484ZM7.21357 9.95321C7.07572 9.93527 6.95686 9.84771 6.89883 9.72154L6.89771 9.7191L5.04729 5.62484H15.9564C16.1222 5.62484 16.2215 5.80892 16.1306 5.94747L15.2535 7.2842L14.796 7.8261C13.6777 9.15099 12.0758 9.97344 10.3474 10.1101C9.55024 10.1732 8.74869 10.153 7.95574 10.0498L7.21357 9.95321Z" fill="black"/>
<path d="M5.41667 15.4165C4.72632 15.4165 4.16667 15.9761 4.16667 16.6665C4.16667 17.3569 4.72632 17.9165 5.41667 17.9165C6.10703 17.9165 6.66667 17.3569 6.66667 16.6665C6.66667 15.9761 6.10703 15.4165 5.41667 15.4165Z" fill="black"/>
<path d="M13.3333 16.6665C13.3333 15.9761 13.893 15.4165 14.5833 15.4165C15.2737 15.4165 15.8333 15.9761 15.8333 16.6665C15.8333 17.3569 15.2737 17.9165 14.5833 17.9165C13.893 17.9165 13.3333 17.3569 13.3333 16.6665Z" fill="black"/>
</svg>
