<svg width="20" height="20" viewBox="0 0 20 20" fill="none" xmlns="http://www.w3.org/2000/svg">
<path d="M4.5328 4.53262C4.76722 4.2982 5.08517 4.1665 5.41669 4.1665C5.74821 4.1665 6.06615 4.2982 6.30057 4.53262C6.53499 4.76704 6.66669 5.08498 6.66669 5.4165C6.66669 5.74802 6.53499 6.06597 6.30057 6.30039C6.06615 6.53481 5.74821 6.6665 5.41669 6.6665C5.08517 6.6665 4.76722 6.53481 4.5328 6.30039C4.29838 6.06597 4.16669 5.74802 4.16669 5.4165C4.16669 5.08498 4.29838 4.76704 4.5328 4.53262Z" fill="black"/>
<path d="M4.5328 9.11612C4.76722 8.8817 5.08517 8.75 5.41669 8.75C5.74821 8.75 6.06615 8.8817 6.30057 9.11612C6.53499 9.35054 6.66669 9.66848 6.66669 10C6.66669 10.3315 6.53499 10.6495 6.30057 10.8839C6.06615 11.1183 5.74821 11.25 5.41669 11.25C5.08517 11.25 4.76722 11.1183 4.5328 10.8839C4.29838 10.6495 4.16669 10.3315 4.16669 10C4.16669 9.66848 4.29838 9.35054 4.5328 9.11612Z" fill="black"/>
<path d="M4.5328 13.6996C4.76722 13.4652 5.08517 13.3335 5.41669 13.3335C5.74821 13.3335 6.06615 13.4652 6.30057 13.6996C6.53499 13.934 6.66669 14.252 6.66669 14.5835C6.66669 14.915 6.53499 15.233 6.30057 15.4674C6.06615 15.7018 5.74821 15.8335 5.41669 15.8335C5.08517 15.8335 4.76722 15.7018 4.5328 15.4674C4.29838 15.233 4.16669 14.915 4.16669 14.5835C4.16669 14.252 4.29838 13.934 4.5328 13.6996Z" fill="black"/>
<path d="M9.11612 4.53262C9.35054 4.2982 9.66848 4.1665 10 4.1665C10.3315 4.1665 10.6495 4.2982 10.8839 4.53262C11.1183 4.76704 11.25 5.08498 11.25 5.4165C11.25 5.74802 11.1183 6.06597 10.8839 6.30039C10.6495 6.53481 10.3315 6.6665 10 6.6665C9.66848 6.6665 9.35054 6.53481 9.11612 6.30039C8.8817 6.06597 8.75 5.74802 8.75 5.4165C8.75 5.08498 8.8817 4.76704 9.11612 4.53262Z" fill="black"/>
<path d="M9.11612 9.11612C9.35054 8.8817 9.66848 8.75 10 8.75C10.3315 8.75 10.6495 8.8817 10.8839 9.11612C11.1183 9.35054 11.25 9.66848 11.25 10C11.25 10.3315 11.1183 10.6495 10.8839 10.8839C10.6495 11.1183 10.3315 11.25 10 11.25C9.66848 11.25 9.35054 11.1183 9.11612 10.8839C8.8817 10.6495 8.75 10.3315 8.75 10C8.75 9.66848 8.8817 9.35054 9.11612 9.11612Z" fill="black"/>
<path d="M9.11612 13.6996C9.35054 13.4652 9.66848 13.3335 10 13.3335C10.3315 13.3335 10.6495 13.4652 10.8839 13.6996C11.1183 13.934 11.25 14.252 11.25 14.5835C11.25 14.915 11.1183 15.233 10.8839 15.4674C10.6495 15.7018 10.3315 15.8335 10 15.8335C9.66848 15.8335 9.35054 15.7018 9.11612 15.4674C8.8817 15.233 8.75 14.915 8.75 14.5835C8.75 14.252 8.8817 13.934 9.11612 13.6996Z" fill="black"/>
<path d="M13.6994 4.53262C13.9339 4.2982 14.2518 4.1665 14.5833 4.1665C14.9148 4.1665 15.2328 4.2982 15.4672 4.53262C15.7016 4.76704 15.8333 5.08498 15.8333 5.4165C15.8333 5.74802 15.7016 6.06597 15.4672 6.30039C15.2328 6.53481 14.9148 6.6665 14.5833 6.6665C14.2518 6.6665 13.9339 6.53481 13.6994 6.30039C13.465 6.06597 13.3333 5.74802 13.3333 5.4165C13.3333 5.08498 13.465 4.76704 13.6994 4.53262Z" fill="black"/>
<path d="M13.6994 9.11612C13.9339 8.8817 14.2518 8.75 14.5833 8.75C14.9148 8.75 15.2328 8.8817 15.4672 9.11612C15.7016 9.35054 15.8333 9.66848 15.8333 10C15.8333 10.3315 15.7016 10.6495 15.4672 10.8839C15.2328 11.1183 14.9148 11.25 14.5833 11.25C14.2518 11.25 13.9339 11.1183 13.6994 10.8839C13.465 10.6495 13.3333 10.3315 13.3333 10C13.3333 9.66848 13.465 9.35054 13.6994 9.11612Z" fill="black"/>
<path d="M13.6994 13.6996C13.9339 13.4652 14.2518 13.3335 14.5833 13.3335C14.9148 13.3335 15.2328 13.4652 15.4672 13.6996C15.7016 13.934 15.8333 14.252 15.8333 14.5835C15.8333 14.915 15.7016 15.233 15.4672 15.4674C15.2328 15.7018 14.9148 15.8335 14.5833 15.8335C14.2518 15.8335 13.9339 15.7018 13.6994 15.4674C13.465 15.233 13.3333 14.915 13.3333 14.5835C13.3333 14.252 13.465 13.934 13.6994 13.6996Z" fill="black"/>
</svg>
