<svg width="24" height="24" viewBox="0 0 24 24" fill="none" xmlns="http://www.w3.org/2000/svg">
<path d="M7.14713 9.16127C7.243 9.23158 7.37845 9.20301 7.44233 9.10274C8.40085 7.59812 10.0839 6.6 12 6.6C13.3087 6.6 14.5052 7.0694 15.4394 7.84461C15.5209 7.91225 15.6409 7.90905 15.7158 7.83415L17.9816 5.56839C18.0617 5.48833 18.0595 5.35768 17.975 5.28238C16.3853 3.8667 14.2961 3 12 3C8.88012 3 6.13082 4.5878 4.51616 6.99933C4.45745 7.08702 4.4796 7.20497 4.56469 7.26737L7.14713 9.16127Z" fill="#EA4335"/>
<path d="M6.67912 12.9263C6.69204 13.0011 6.66363 13.0773 6.60355 13.1236L3.86891 15.2306C3.76421 15.3112 3.61142 15.27 3.56521 15.1461C3.19977 14.1668 3 13.1068 3 12.0002C3 10.8477 3.21668 9.74573 3.61153 8.73286C3.65843 8.61257 3.8066 8.57176 3.91071 8.64811L6.6428 10.6518C6.70782 10.6994 6.73751 10.7814 6.72057 10.8603C6.64158 11.2278 6.6 11.6091 6.6 12.0002C6.6 12.316 6.62711 12.6254 6.67912 12.9263Z" fill="#FBBC05"/>
<path d="M14.4727 16.8C14.5463 16.7619 14.6359 16.7705 14.6992 16.8241L17.2668 18.9968C17.3643 19.0793 17.3606 19.231 17.257 19.3057C15.778 20.3718 13.9623 21 12 21C8.83809 21 6.0568 19.3691 4.45151 16.9027C4.39546 16.8166 4.41626 16.7022 4.49766 16.6395L7.04296 14.6784C7.14099 14.6029 7.28323 14.6338 7.34613 14.7404C8.28548 16.3321 10.0181 17.4 12 17.4C12.8919 17.4 13.7324 17.1834 14.4727 16.8Z" fill="#34A853"/>
<path d="M20.6607 10.2002C20.7562 10.2002 20.8386 10.2676 20.8553 10.3616C20.949 10.8874 21 11.4532 21 12.0002C21 14.3058 20.1329 16.409 18.707 18.0014C18.6358 18.0809 18.5145 18.0879 18.4331 18.0189L15.9875 15.949C15.8983 15.8736 15.8928 15.7384 15.9717 15.6524C16.4586 15.1217 16.8409 14.4933 17.0864 13.8002H12.2C12.0895 13.8002 12 13.7107 12 13.6002V10.4002C12 10.2897 12.0895 10.2002 12.2 10.2002H20.6607Z" fill="#4285F4"/>
</svg>
