<svg width="24" height="24" viewBox="0 0 24 24" fill="none" xmlns="http://www.w3.org/2000/svg">
<path d="M13.796 4.13597C12.8136 3.12135 11.1863 3.12135 10.2039 4.13596L5.40546 9.09169C5.12987 9.37631 4.94469 9.73612 4.87323 10.1258C4.29047 13.3038 4.24745 16.5572 4.74599 19.7495L4.92249 20.8797C4.97824 21.2367 5.2857 21.4998 5.64701 21.4998H8.99997C9.27611 21.4998 9.49997 21.276 9.49997 20.9998V13.9998H14.5V20.9998C14.5 21.276 14.7238 21.4998 15 21.4998H18.3529C18.7142 21.4998 19.0217 21.2367 19.0774 20.8797L19.2539 19.7495C19.7524 16.5572 19.7094 13.3038 19.1267 10.1258C19.0552 9.73612 18.87 9.37631 18.5944 9.0917L13.796 4.13597Z" fill="black"/>
</svg>
