<svg width="168" height="24" viewBox="0 0 168 24" fill="none" xmlns="http://www.w3.org/2000/svg">
<path d="M2.82187 3.55278C4.69619 1.46122 7.62927 0 11.9964 0C17.2966 0 20.3743 1.42288 22.0984 3.39375C22.875 4.28162 23.3379 5.23751 23.6117 6.1374H21.4701C21.264 5.65514 20.9777 5.17351 20.5815 4.7206C19.3743 3.34048 16.9559 2.01527 11.9964 2.01527C8.11934 2.01527 5.7628 3.29069 4.32269 4.89772C2.85462 6.53594 2.2366 8.63433 2.07734 10.4183C2.00717 11.2043 1.95933 12.1214 2.14744 12.8844C2.3229 13.5961 2.65445 14.0272 3.30602 14.1889C3.78943 14.3088 4.42733 14.1407 5.25022 13.5045C6.05437 12.8827 6.86245 11.9418 7.59767 10.9146C8.66999 9.41635 9.56505 7.80188 10.3499 6.1374H12.4545V13.5155L16.3526 6.1374H18.4892C18.4892 7.06431 18.4857 7.99093 18.4721 8.91777C18.4532 10.2058 18.4355 11.4154 18.5181 12.4816C18.5771 13.2423 18.6834 13.8462 18.845 14.2882C19.2264 15.3308 20.357 15.3659 21.2111 14.7908C21.531 14.5754 21.8166 14.3067 22.0625 14.0101H24V14.4602C24 16.8941 23.1623 19.1165 21.2443 20.9576C19.3194 22.8055 16.3932 24 12.3629 24C9.02524 24 6.3393 23.4856 4.44735 22.5714C2.69284 21.7236 1.45607 20.4316 1.29641 18.7786H3.33563C3.48281 19.4259 4.04155 20.1371 5.32416 20.7569C6.84442 21.4915 9.19665 21.9847 12.3629 21.9847C15.9876 21.9847 18.3744 20.9191 19.8487 19.5038C20.6519 18.7328 21.4458 17.5505 21.7894 16.6073L21.7464 16.5802C20.9392 17.4275 19.4232 17.3245 18.358 16.7487C17.6301 16.3553 17.2067 15.6757 16.9524 14.9804C16.6984 14.286 16.5735 13.4712 16.5089 12.6373C16.4532 11.9187 16.4395 10.9399 16.4417 10.1219L12.759 16.9466H10.4392V10.0709C10.087 10.653 9.68167 11.4654 9.23643 12.0875C8.45395 13.1807 7.51249 14.3027 6.4829 15.0988C5.47203 15.8804 4.19195 16.485 2.82077 16.1448C1.2138 15.7462 0.480516 14.5421 0.190761 13.3668C-0.0863328 12.2428 0.000250447 11.021 0.0700513 10.2391C0.254298 8.1753 0.97551 5.61315 2.82187 3.55278Z" fill="white"/>
<path d="M39.3698 18.7712C43.032 18.7443 44.5668 16.8324 44.5668 14.6243C44.5668 12.9548 43.6782 11.5546 41.0932 11.2583L37.7541 10.8814C36.3808 10.7198 35.8691 10.1004 35.8691 9.34647C35.8691 8.29628 36.8116 7.65001 38.4004 7.65001C40.393 7.65001 41.5779 8.56556 42.0626 9.93888H44.4591C43.9744 7.62309 41.901 5.73814 38.5081 5.73814C35.1421 5.73814 33.3649 7.35381 33.3649 9.58882C33.3649 11.3122 34.415 12.7663 36.8655 13.0356L40.0699 13.3856C41.4971 13.5472 42.0895 14.0319 42.0895 14.9744C42.0895 16.0784 41.147 16.8593 39.3698 16.8324C37.404 16.8055 36.1654 15.9977 35.6537 14.732H33.2571C33.9034 17.3171 36.1384 18.7981 39.3698 18.7712Z" fill="white"/>
<path d="M47.7721 18.3673H50.1956V10.9083C50.5457 9.45418 51.7574 7.94622 53.7501 7.94622C55.5004 7.94622 56.2813 9.05026 56.2813 11.1237V18.3673H58.7048V10.5313C58.7048 7.7308 57.2776 5.73814 54.2887 5.73814C52.5114 5.73814 51.1112 6.46519 50.1956 7.67694V2.82842H47.7721V18.3673Z" fill="white"/>
<path d="M67.652 18.7712C71.0987 18.7712 73.8184 16.3477 73.8184 12.2547C73.8184 8.16164 71.0987 5.73814 67.652 5.73814C64.1513 5.73814 61.4585 8.16164 61.4585 12.2547C61.4585 16.3477 64.1513 18.7712 67.652 18.7712ZM67.652 16.7897C65.4977 16.7897 64.3037 15.2975 64.3037 13.251V11.2583C64.3037 9.1849 65.5247 7.69269 67.652 7.69269C69.7523 7.69269 70.9742 9.1849 70.9742 11.2583V13.251C70.9742 15.2975 69.7523 16.7897 67.652 16.7897Z" fill="white"/>
<path d="M82.1991 18.7712C85.6458 18.7712 88.3655 16.3477 88.3655 12.2547C88.3655 8.16164 85.6458 5.73814 82.1991 5.73814C78.6984 5.73814 76.0057 8.16164 76.0057 12.2547C76.0057 16.3477 78.6984 18.7712 82.1991 18.7712ZM82.1991 16.7897C80.0448 16.7897 78.8497 15.2975 78.8497 13.251V11.2583C78.8497 9.1849 80.0718 7.69269 82.1991 7.69269C84.2994 7.69269 85.5202 9.1849 85.5202 11.2583V13.251C85.5202 15.2975 84.2994 16.7897 82.1991 16.7897Z" fill="white"/>
<path d="M98.2438 18.3673H101.556V16.1323H98.4053C96.8974 16.1323 96.2511 15.2975 96.2511 13.8703V8.35014H101.556V6.14205H96.2511V2.82842H93.8814V6.14205H88.9351V8.35014H93.8814V14.2743C93.8814 16.7247 95.4163 18.3673 98.2438 18.3673Z" fill="white"/>
<path d="M104.222 18.3673H106.645V10.9083C106.995 9.45418 108.207 7.94622 110.2 7.94622C111.95 7.94622 112.731 9.05026 112.731 11.1237V18.3673H115.154V10.9083C115.504 9.45418 116.716 7.94622 118.709 7.94622C120.459 7.94622 121.24 9.05026 121.24 11.1237V18.3673H123.664V10.5313C123.664 7.7308 122.236 5.73814 119.247 5.73814C117.201 5.73814 115.666 6.70754 114.777 8.26935C114.158 6.70754 112.839 5.73814 110.738 5.73814C108.826 5.73814 107.345 6.5729 106.43 8.00008V6.14205H104.222V18.3673Z" fill="white"/>
<path d="M132.595 18.7712C136.042 18.7712 138.762 16.3477 138.762 12.2547C138.762 8.16164 136.042 5.73814 132.595 5.73814C129.095 5.73814 126.402 8.16164 126.402 12.2547C126.402 16.3477 129.095 18.7712 132.595 18.7712ZM132.595 16.7897C130.441 16.7897 129.247 15.2975 129.247 13.251V11.2583C129.247 9.1849 130.468 7.69269 132.595 7.69269C134.696 7.69269 135.917 9.1849 135.917 11.2583V13.251C135.917 15.2975 134.696 16.7897 132.595 16.7897Z" fill="white"/>
<path d="M150.724 18.3673H153.013V2.82842H150.589V7.32688C149.62 6.22284 148.3 5.73814 146.712 5.73814C143.373 5.73814 140.976 8.16164 140.976 12.2547C140.976 16.3208 143.346 18.7712 146.685 18.7712C148.354 18.7712 149.728 18.2596 150.724 17.0478V18.3673ZM146.981 7.74655C149.081 7.74655 150.724 9.42725 150.724 12.2816C150.724 15.0821 149.135 16.7628 146.981 16.7628C144.854 16.7628 143.729 15.136 143.729 13.4664V11.0429C143.729 9.45418 144.854 7.74655 146.981 7.74655Z" fill="white"/>
<path d="M162.011 18.7712C164.434 18.7712 166.831 17.5325 167.854 14.1127H165.531C164.831 15.6745 163.815 16.8974 162.011 16.8705C159.695 16.8705 158.463 15.2975 158.463 13.2779V12.4701H167.989C168.177 8.64635 165.942 5.73814 161.957 5.73814C158.456 5.73814 155.71 8.08086 155.71 12.2547C155.71 16.2939 158.241 18.7712 162.011 18.7712ZM161.957 7.55805C163.815 7.55805 165.073 8.64634 165.316 10.639H158.49C158.706 8.61942 160.099 7.55805 161.957 7.55805Z" fill="white"/>
</svg>
