<svg width="40" height="40" viewBox="0 0 40 40" fill="none" xmlns="http://www.w3.org/2000/svg">
<g clip-path="url(#clip0_160_643)">
<rect width="40" height="40" rx="10" fill="#D73E1C"/>
<g filter="url(#filter0_ddiii_160_643)">
<path fill-rule="evenodd" clip-rule="evenodd" d="M40 0H0V40H40V0ZM19.9961 6.99987C15.265 6.99987 12.0875 8.58285 10.057 10.8487C8.05681 13.0808 7.2755 15.8564 7.07589 18.0922C7.00028 18.9393 6.90648 20.2629 7.20666 21.4806C7.52056 22.7538 8.31495 24.0582 10.0558 24.4901C11.5413 24.8586 12.928 24.2036 14.0231 23.3569C15.1385 22.4945 16.1585 21.279 17.0061 20.0946C17.3238 19.6508 17.6227 19.1176 17.8987 18.6251C18.0419 18.3697 18.1789 18.1253 18.3091 17.9101V25.3586H20.8223L24.8119 17.9653C24.8094 18.8515 24.8243 19.9118 24.8846 20.6903C24.9546 21.5937 25.09 22.4764 25.3651 23.2286C25.6406 23.9819 26.0993 24.7181 26.8878 25.1443C28.0418 25.768 29.6841 25.8796 30.5587 24.9617L30.6052 24.9912C30.2329 26.0129 29.3729 27.2937 28.5028 28.129C26.9056 29.6622 24.3199 30.8167 20.3931 30.8167C16.963 30.8167 14.4148 30.2823 12.7678 29.4865C11.3784 28.815 10.7731 28.0446 10.6136 27.3434H8.40445C8.57742 29.1341 9.91725 30.5337 11.818 31.4522C13.8676 32.4426 16.7773 32.9999 20.3931 32.9999C24.7593 32.9999 27.9294 31.7058 30.0147 29.704C32.0924 27.7094 33 25.3018 33 22.6651V22.1775H30.9011C30.6346 22.4988 30.3252 22.7899 29.9787 23.0232C29.0534 23.6463 27.8286 23.6083 27.4155 22.4787C27.2403 21.9999 27.1252 21.3457 27.0613 20.5216C26.9718 19.3665 26.991 18.0562 27.0114 16.6608V16.6608C27.0262 15.6567 27.03 14.6529 27.03 13.6487H24.7154L20.4923 21.6417V13.6487H18.2124C17.3621 15.4519 16.3925 17.2009 15.2308 18.824C14.4343 19.9368 13.5589 20.9562 12.6877 21.6297C11.7963 22.319 11.1052 22.5011 10.5815 22.3711C9.87566 22.196 9.51648 21.729 9.3264 20.958C9.12261 20.1313 9.17444 19.1378 9.25045 18.2864C9.42299 16.3537 10.0925 14.0805 11.6829 12.3057C13.243 10.5648 15.796 9.18307 19.9961 9.18307C25.3689 9.18307 27.9888 10.6187 29.2967 12.1139C29.7259 12.6045 30.0361 13.1263 30.2593 13.6487H32.5794C32.2827 12.6738 31.7813 11.6383 30.9399 10.6764C29.0722 8.54132 25.7379 6.99987 19.9961 6.99987Z" fill="url(#paint0_linear_160_643)"/>
</g>
</g>
<defs>
<filter id="filter0_ddiii_160_643" x="-3.21094" y="-3.21094" width="46.4219" height="46.4219" filterUnits="userSpaceOnUse" color-interpolation-filters="sRGB">
<feFlood flood-opacity="0" result="BackgroundImageFix"/>
<feColorMatrix in="SourceAlpha" type="matrix" values="0 0 0 0 0 0 0 0 0 0 0 0 0 0 0 0 0 0 127 0" result="hardAlpha"/>
<feOffset dy="0.535156"/>
<feGaussianBlur stdDeviation="0.535156"/>
<feColorMatrix type="matrix" values="0 0 0 0 0 0 0 0 0 0 0 0 0 0 0 0 0 0 0.2 0"/>
<feBlend mode="normal" in2="BackgroundImageFix" result="effect1_dropShadow_160_643"/>
<feColorMatrix in="SourceAlpha" type="matrix" values="0 0 0 0 0 0 0 0 0 0 0 0 0 0 0 0 0 0 127 0" result="hardAlpha"/>
<feOffset/>
<feGaussianBlur stdDeviation="1.60547"/>
<feColorMatrix type="matrix" values="0 0 0 0 0.117647 0 0 0 0 0.243137 0 0 0 0 0.494118 0 0 0 0.2 0"/>
<feBlend mode="normal" in2="effect1_dropShadow_160_643" result="effect2_dropShadow_160_643"/>
<feBlend mode="normal" in="SourceGraphic" in2="effect2_dropShadow_160_643" result="shape"/>
<feColorMatrix in="SourceAlpha" type="matrix" values="0 0 0 0 0 0 0 0 0 0 0 0 0 0 0 0 0 0 127 0" result="hardAlpha"/>
<feOffset/>
<feGaussianBlur stdDeviation="1.07031"/>
<feComposite in2="hardAlpha" operator="arithmetic" k2="-1" k3="1"/>
<feColorMatrix type="matrix" values="0 0 0 0 1 0 0 0 0 1 0 0 0 0 1 0 0 0 0.25 0"/>
<feBlend mode="normal" in2="shape" result="effect3_innerShadow_160_643"/>
<feColorMatrix in="SourceAlpha" type="matrix" values="0 0 0 0 0 0 0 0 0 0 0 0 0 0 0 0 0 0 127 0" result="hardAlpha"/>
<feOffset dy="0.535156"/>
<feGaussianBlur stdDeviation="0.267578"/>
<feComposite in2="hardAlpha" operator="arithmetic" k2="-1" k3="1"/>
<feColorMatrix type="matrix" values="0 0 0 0 1 0 0 0 0 1 0 0 0 0 1 0 0 0 0.25 0"/>
<feBlend mode="normal" in2="effect3_innerShadow_160_643" result="effect4_innerShadow_160_643"/>
<feColorMatrix in="SourceAlpha" type="matrix" values="0 0 0 0 0 0 0 0 0 0 0 0 0 0 0 0 0 0 127 0" result="hardAlpha"/>
<feOffset dy="-0.267578"/>
<feGaussianBlur stdDeviation="0.267578"/>
<feComposite in2="hardAlpha" operator="arithmetic" k2="-1" k3="1"/>
<feColorMatrix type="matrix" values="0 0 0 0 0 0 0 0 0 0 0 0 0 0 0 0 0 0 0.25 0"/>
<feBlend mode="normal" in2="effect4_innerShadow_160_643" result="effect5_innerShadow_160_643"/>
</filter>
<linearGradient id="paint0_linear_160_643" x1="20" y1="0" x2="20" y2="40" gradientUnits="userSpaceOnUse">
<stop stop-color="#FF6644"/>
<stop offset="1" stop-color="#EB5230"/>
</linearGradient>
<clipPath id="clip0_160_643">
<rect width="40" height="40" rx="10" fill="white"/>
</clipPath>
</defs>
</svg>
