<svg width="20" height="20" viewBox="0 0 20 20" fill="none" xmlns="http://www.w3.org/2000/svg">
<path fill-rule="evenodd" clip-rule="evenodd" d="M8.75002 1.6665C4.838 1.6665 1.66669 4.83782 1.66669 8.74984C1.66669 12.6619 4.838 15.8332 8.75002 15.8332C10.4058 15.8332 11.9288 15.2651 13.1349 14.3132L17.7442 18.9224L18.9227 17.7439L14.3134 13.1347C15.2653 11.9286 15.8334 10.4055 15.8334 8.74984C15.8334 4.83782 12.662 1.6665 8.75002 1.6665ZM3.33335 8.74984C3.33335 5.75829 5.75848 3.33317 8.75002 3.33317C11.7416 3.33317 14.1667 5.75829 14.1667 8.74984C14.1667 11.7414 11.7416 14.1665 8.75002 14.1665C5.75848 14.1665 3.33335 11.7414 3.33335 8.74984Z" fill="black"/>
</svg>
