<svg width="24" height="24" viewBox="0 0 24 24" fill="none" xmlns="http://www.w3.org/2000/svg">
<path d="M8.74963 12.0001C8.74963 10.2052 10.2047 8.75013 11.9996 8.75013C13.7946 8.75013 15.2496 10.2052 15.2496 12.0001C15.2496 13.7951 13.7946 15.2501 11.9996 15.2501C10.2047 15.2501 8.74963 13.7951 8.74963 12.0001Z" fill="black"/>
<path fill-rule="evenodd" clip-rule="evenodd" d="M11.4604 1.83864C11.7552 1.5336 12.2441 1.5336 12.5389 1.83864L15.1112 4.50013H18.7496C19.1639 4.50013 19.4996 4.83592 19.4996 5.25013V8.88853L22.1611 11.4608C22.4662 11.7557 22.4662 12.2446 22.1611 12.5394L19.4996 15.1117V18.7501C19.4996 19.1643 19.1639 19.5001 18.7496 19.5001H15.1112L12.5389 22.1616C12.2441 22.4667 11.7552 22.4667 11.4604 22.1616L8.88803 19.5001H5.24964C4.83543 19.5001 4.49964 19.1643 4.49964 18.7501V15.1117L1.83816 12.5394C1.53312 12.2446 1.53311 11.7557 1.83816 11.4608L4.49964 8.88852V5.25013C4.49964 4.83592 4.83543 4.50013 5.24964 4.50013H8.88803L11.4604 1.83864ZM11.9996 7.25013C9.37628 7.25013 7.24963 9.37678 7.24963 12.0001C7.24963 14.6235 9.37628 16.7501 11.9996 16.7501C14.623 16.7501 16.7496 14.6235 16.7496 12.0001C16.7496 9.37678 14.623 7.25013 11.9996 7.25013Z" fill="black"/>
</svg>
