<svg width="100" height="18" viewBox="0 0 100 18" fill="none" xmlns="http://www.w3.org/2000/svg">
<path d="M35.9829 17.6162C32.4019 17.6162 29.078 16.5418 26.859 14.5507C25.1822 13.0461 24.3766 11.0017 24.3766 8.89834C24.3766 6.81973 25.217 4.76187 26.859 3.26534C28.9186 1.38741 32.5577 0.211182 35.9829 0.211182C39.7736 0.211182 42.8078 1.16597 45.1272 3.27028C46.7776 4.7682 47.5758 6.81696 47.5758 8.89834C47.5758 10.9161 46.7285 13.0647 45.1272 14.5507C42.9677 16.5548 39.5739 17.6162 35.9829 17.6162V15.3202C37.8842 15.3202 39.6471 14.6638 40.878 13.4393C42.1013 12.2224 42.6712 10.7261 42.6712 8.89834C42.6712 7.14636 42.0563 5.50945 40.878 4.34825C39.6631 3.15106 37.8583 2.47783 35.9829 2.47783C34.1024 2.47783 32.2955 3.14454 31.0801 4.34825C29.9084 5.50866 29.2923 7.1513 29.2923 8.89834C29.2923 10.6395 29.9147 12.2799 31.0801 13.4393C32.2963 14.6496 34.0967 15.3202 35.9829 15.3202V17.6162Z" fill="black"/>
<path d="M9.80856 0.219482C7.89306 0.219482 5.71618 0.577946 3.8677 1.40362C2.16119 2.16543 0.763917 3.39662 0.763917 5.43827C0.762928 7.27685 1.93164 8.35343 1.89981 8.32417C2.39707 8.78169 3.19724 9.5609 5.2891 10.019C6.22431 10.2233 8.22325 10.5368 10.2143 10.7456C12.1897 10.9538 14.1348 11.1515 14.9263 11.3524C15.5556 11.5126 16.6136 11.7309 16.6136 12.9164C16.6136 14.0977 15.4999 14.4584 15.3061 14.5359C15.1126 14.6132 13.7764 15.2257 11.3751 15.2257C9.60194 15.2257 7.47053 14.6923 6.6933 14.4147C5.79803 14.0958 4.85827 13.674 3.98199 12.604C3.7639 12.3379 3.42027 11.6085 3.42027 10.8856H1.24635V16.9761H3.66267C3.66267 16.9761 3.66267 16.308 3.66267 16.1528C3.66267 16.0593 3.77932 15.6736 4.18504 15.8574C4.68982 16.0868 6.17093 16.6766 7.71966 17.0001C8.9896 17.265 9.80856 17.4554 11.3871 17.4554C13.9628 17.4554 15.3469 17.0364 16.3034 16.763C17.2048 16.5054 18.318 16.0417 19.2231 15.3202C19.7125 14.9303 20.7869 13.9301 20.7869 12.115C20.7869 10.3735 19.8523 9.2922 19.5233 8.96319C19.0754 8.51516 18.5278 8.16698 17.9573 7.89927C17.4609 7.66576 16.6765 7.385 16.0351 7.22782C14.7897 6.92195 11.9742 6.54509 10.6271 6.40432C9.2156 6.25662 6.76586 6.05357 5.78775 5.75066C5.49097 5.65872 4.88714 5.37065 4.88714 4.66934C4.88714 4.1699 5.16316 3.74659 5.70965 3.40433C6.57704 2.8612 8.32903 2.52271 10.1559 2.52271C12.315 2.51519 14.1439 3.00909 15.3073 3.5287C15.7033 3.70526 16.1656 3.95953 16.5336 4.25967C16.948 4.59796 17.5314 5.30046 17.7414 6.28094H19.6929V0.979513H17.514V1.59521C17.514 1.79471 17.3088 2.05313 16.9207 1.839C15.9453 1.32809 13.188 0.224228 9.80856 0.219482Z" fill="black"/>
<path d="M57.5574 1.18311L68.1862 10.7748L68.0774 4.31695C68.0661 3.46992 67.9101 3.1164 66.9945 3.1164C65.7704 3.1164 64.9958 3.1164 64.9958 3.1164V1.18469H74.0843V3.1164C74.0843 3.1164 73.3587 3.1164 72.134 3.1164C71.2004 3.1164 71.1417 3.41555 71.1296 4.31695L71.2945 16.6574H68.182L55.9408 5.73123L55.9428 13.485C55.9539 14.3284 55.993 14.7249 56.8614 14.7249C58.0845 14.7249 59.0444 14.7249 59.0444 14.7249V16.6566H50.119V14.7249C50.119 14.7249 50.9821 14.7249 52.2053 14.7249C52.9848 14.7249 52.9537 13.982 52.9537 13.4413V4.3901C52.9537 3.80604 52.8715 3.11758 51.6482 3.11758H49.9555V1.18311H57.5574Z" fill="black"/>
<path d="M84.4687 14.7214C84.5537 14.7214 84.9329 14.7102 85.0063 14.6878C85.2163 14.6226 85.3588 14.4727 85.4249 14.3167C85.4527 14.2515 85.4666 13.961 85.4666 13.8989C85.4666 13.8989 85.4678 10.9474 85.4678 10.8454C85.4678 10.772 85.4622 10.74 85.3381 10.5771C85.2008 10.3979 79.7709 4.24432 79.5222 3.97365C79.2137 3.63673 78.672 3.11674 77.8479 3.11674C77.1928 3.11674 75.9599 3.11674 75.9599 3.11674V1.18384H86.6169V3.11397C86.6169 3.11397 85.5801 3.11397 85.3321 3.11397C85.0356 3.11397 84.8382 3.39591 85.0915 3.7091C85.0915 3.7091 88.6775 7.99841 88.7115 8.04388C88.7451 8.08896 88.7736 8.10023 88.8189 8.05792C88.8638 8.01541 92.4945 3.74884 92.523 3.71483C92.6956 3.50822 92.5795 3.11674 92.2068 3.11674C91.9581 3.11674 90.888 3.11674 90.888 3.11674V1.18384H99.6232V3.11674C99.6232 3.11674 98.3268 3.11674 97.6718 3.11674C96.9635 3.11674 96.6754 3.24723 96.143 3.84968C95.8994 4.1251 90.4115 10.3894 90.262 10.5593C90.1835 10.648 90.1909 10.772 90.1909 10.8454C90.1909 10.9632 90.1909 13.615 90.1909 13.8977C90.1909 13.9594 90.2049 14.2499 90.2326 14.3151C90.2982 14.4719 90.4412 14.6214 90.6514 14.6862C90.7247 14.709 91.0988 14.7202 91.1838 14.7202C91.5672 14.7202 93.18 14.7202 93.18 14.7202V16.6526H82.5773V14.7202L84.4687 14.7214Z" fill="black"/>
</svg>
