<svg width="20" height="20" viewBox="0 0 20 20" fill="none" xmlns="http://www.w3.org/2000/svg">
<path d="M10.7202 2.49713C10.3991 1.94367 9.59981 1.94367 9.27866 2.49713L7.01695 6.39488C6.85831 6.66829 6.5841 6.85486 6.27155 6.90207L2.03295 7.54226C1.32105 7.64978 1.07133 8.54862 1.62575 9.00796L4.78333 11.624C5.07561 11.8661 5.21305 12.2481 5.14205 12.621L4.31607 16.9586C4.1855 17.6443 4.90533 18.177 5.52295 17.8518L9.51412 15.7503C9.8179 15.5904 10.181 15.5904 10.4848 15.7503L14.4759 17.8518C15.0936 18.177 15.8134 17.6443 15.6828 16.9586L14.8568 12.621C14.7858 12.2481 14.9233 11.8661 15.2156 11.624L18.3731 9.00796C18.9275 8.54863 18.6778 7.64978 17.9659 7.54226L13.7273 6.90207C13.4148 6.85486 13.1406 6.66829 12.9819 6.39488L10.7202 2.49713Z" fill="black"/>
</svg>
