<svg width="107" height="24" viewBox="0 0 107 24" fill="none" xmlns="http://www.w3.org/2000/svg">
<path d="M2.64609 7.57246C3.73945 6.35238 5.45041 5.5 7.99792 5.5C11.0897 5.5 12.885 6.33001 13.8907 7.47969C14.3438 7.99761 14.6138 8.55522 14.7735 9.08015H13.5242C13.404 8.79883 13.237 8.51788 13.0059 8.25368C12.3017 7.44861 10.8909 6.67557 7.99792 6.67557C5.73628 6.67557 4.36163 7.41957 3.52157 8.357C2.6652 9.31263 2.30468 10.5367 2.21178 11.5773C2.17085 12.0358 2.14294 12.5708 2.25268 13.0159C2.35502 13.4311 2.54843 13.6825 2.92851 13.7768C3.2105 13.8468 3.58261 13.7488 4.06263 13.3776C4.53172 13.0149 5.00309 12.466 5.43197 11.8668C6.05749 10.9929 6.57961 10.0511 7.03744 9.08015H8.2651V13.384L10.539 9.08015H11.7854C11.7854 9.62085 11.7833 10.1614 11.7754 10.702C11.7644 11.4534 11.754 12.159 11.8022 12.7809C11.8366 13.2247 11.8986 13.5769 11.9929 13.8348C12.2154 14.443 12.8749 14.4635 13.3732 14.128C13.5597 14.0023 13.7263 13.8456 13.8698 13.6725H15V13.9351C15 15.3549 14.5113 16.6513 13.3925 17.7253C12.2697 18.8032 10.5627 19.5 8.21166 19.5C6.26472 19.5 4.69793 19.1999 3.59429 18.6666C2.57082 18.1721 1.84938 17.4184 1.75624 16.4542H2.94578C3.03164 16.8318 3.35757 17.2466 4.10576 17.6082C4.99258 18.0367 6.36471 18.3244 8.21166 18.3244C10.3261 18.3244 11.7184 17.7028 12.5784 16.8772C13.0469 16.4275 13.51 15.7378 13.7105 15.1876L13.6854 15.1718C13.2145 15.666 12.3302 15.6059 11.7088 15.2701C11.2842 15.0406 11.0372 14.6442 10.8889 14.2386C10.7407 13.8335 10.6679 13.3582 10.6302 12.8718C10.5977 12.4526 10.5897 11.8816 10.591 11.4044L8.44277 15.3855H7.08953V11.3747C6.88408 11.7142 6.64764 12.1882 6.38792 12.551C5.93147 13.1888 5.38229 13.8433 4.78169 14.3076C4.19202 14.7636 3.44531 15.1163 2.64545 14.9178C1.70805 14.6853 1.2803 13.9829 1.11128 13.2973C0.949639 12.6416 1.00015 11.9289 1.04086 11.4728C1.14834 10.2689 1.56905 8.77434 2.64609 7.57246Z" fill="white"/>
<path d="M23.8709 18.128C25.6949 18.128 26.8949 17.184 26.8949 15.712C26.8949 12.032 22.2869 14.08 22.2869 12.08C22.2869 11.456 22.8469 11.04 23.6789 11.04C24.3669 11.04 25.2629 11.408 25.3749 12.336H26.8309C26.7509 10.816 25.5029 9.808 23.6789 9.808C21.9989 9.808 20.8149 10.736 20.8149 12.128C20.8149 15.568 25.3909 13.6 25.3909 15.744C25.3909 16.336 24.7989 16.832 23.8709 16.832C22.8309 16.832 22.1589 16.304 22.0629 15.376H20.6069C20.7189 17.072 21.9829 18.128 23.8709 18.128ZM28.5876 18H30.1396V13.632C30.1396 12.224 31.0356 11.2 32.2996 11.2C33.4356 11.2 34.1876 12.064 34.1876 13.344V18H35.7396V13.04C35.7396 11.12 34.5556 9.808 32.7316 9.808C31.5316 9.808 30.5716 10.352 30.1396 11.36V6.56H28.5876V18ZM41.4224 18.128C43.8384 18.128 45.5664 16.384 45.5664 13.968C45.5664 11.552 43.8384 9.808 41.4224 9.808C39.0064 9.808 37.2624 11.552 37.2624 13.968C37.2624 16.384 39.0064 18.128 41.4224 18.128ZM38.8464 13.968C38.8464 12.32 39.8864 11.168 41.4224 11.168C42.9424 11.168 43.9824 12.32 43.9824 13.968C43.9824 15.616 42.9424 16.768 41.4224 16.768C39.8864 16.768 38.8464 15.616 38.8464 13.968ZM50.7818 18.128C53.1978 18.128 54.9258 16.384 54.9258 13.968C54.9258 11.552 53.1978 9.808 50.7818 9.808C48.3658 9.808 46.6217 11.552 46.6217 13.968C46.6217 16.384 48.3658 18.128 50.7818 18.128ZM48.2057 13.968C48.2057 12.32 49.2458 11.168 50.7818 11.168C52.3018 11.168 53.3418 12.32 53.3418 13.968C53.3418 15.616 52.3018 16.768 50.7818 16.768C49.2458 16.768 48.2057 15.616 48.2057 13.968ZM57.2638 7.408V9.936H55.6158V11.28H57.2638V15.36C57.2638 17.008 58.3038 18 59.9358 18H61.1998V16.656H60.0638C59.2798 16.656 58.8158 16.176 58.8158 15.312V11.28H61.1998V9.936H58.8158V7.408H57.2638ZM62.5233 18H64.0753V13.312C64.0753 12.032 64.8113 11.168 66.0433 11.168C67.0993 11.168 67.7393 12.032 67.7393 13.312V18H69.2913V13.312C69.2913 12.032 70.0273 11.168 71.2593 11.168C72.3313 11.168 72.9713 12.032 72.9713 13.312V18H74.5233V12.88C74.5233 11.008 73.4353 9.808 71.6913 9.808C70.4433 9.808 69.3873 10.544 69.0673 11.456C68.7473 10.4 67.7713 9.808 66.4593 9.808C65.2753 9.808 64.4113 10.464 64.0753 11.376V9.936H62.5233V18ZM80.2036 18.128C82.6196 18.128 84.3476 16.384 84.3476 13.968C84.3476 11.552 82.6196 9.808 80.2036 9.808C77.7876 9.808 76.0436 11.552 76.0436 13.968C76.0436 16.384 77.7876 18.128 80.2036 18.128ZM77.6276 13.968C77.6276 12.32 78.6676 11.168 80.2036 11.168C81.7236 11.168 82.7636 12.32 82.7636 13.968C82.7636 15.616 81.7236 16.768 80.2036 16.768C78.6676 16.768 77.6276 15.616 77.6276 13.968ZM89.275 18.128C90.347 18.128 91.339 17.6 91.819 16.8V18H93.371V6.56H91.819V11.12C91.339 10.336 90.363 9.808 89.259 9.808C86.795 9.808 85.403 11.568 85.403 13.968C85.403 16.368 86.795 18.128 89.275 18.128ZM86.987 13.968C86.987 12.288 87.963 11.168 89.451 11.168C90.955 11.168 91.931 12.288 91.931 13.968C91.931 15.648 90.955 16.768 89.451 16.768C87.963 16.768 86.987 15.648 86.987 13.968ZM94.9499 13.92C94.9499 16.16 96.5019 18.128 98.9979 18.128C100.982 18.128 102.438 17.04 102.726 15.376H101.174C100.95 16.288 100.182 16.8 98.9979 16.8C97.5899 16.8 96.5979 15.76 96.4699 14.24H102.63C102.646 14.096 102.662 13.84 102.662 13.632C102.662 11.584 101.334 9.808 98.8379 9.808C96.3579 9.808 94.9499 11.664 94.9499 13.92ZM96.5179 13.104C96.7579 11.76 97.5739 11.056 98.8379 11.056C100.166 11.056 100.998 11.872 101.094 13.104H96.5179ZM104.242 10.496V12.208H105.97V10.496H104.242ZM104.242 18H105.97V16.288H104.242V18Z" fill="white"/>
</svg>
