<svg width="20" height="20" viewBox="0 0 20 20" fill="none" xmlns="http://www.w3.org/2000/svg">
<path d="M12.9509 6.234C13.1899 6.483 13.1818 6.87865 12.9328 7.1177L10.3287 9.6177C10.0868 9.84987 9.70485 9.84987 9.463 9.6177L7.9005 8.1177C7.65149 7.87865 7.64342 7.48301 7.88247 7.234C8.12151 6.98499 8.51716 6.97692 8.76617 7.21596L9.89583 8.30044L12.0672 6.21596C12.3162 5.97692 12.7118 5.98499 12.9509 6.234Z" fill="black"/>
<path fill-rule="evenodd" clip-rule="evenodd" d="M3.125 6.66683C3.125 4.4807 4.89721 2.7085 7.08333 2.7085H15.4167C16.2221 2.7085 16.875 3.36141 16.875 4.16683V16.6668C16.875 17.4722 16.2221 18.1252 15.4167 18.1252H6.25C4.52411 18.1252 3.125 16.7261 3.125 15.0002V6.66683ZM4.375 12.4999C4.89729 12.1076 5.5465 11.8752 6.25 11.8752H15.625V4.16683C15.625 4.05177 15.5317 3.9585 15.4167 3.9585H7.08333C5.58756 3.9585 4.375 5.17106 4.375 6.66683V12.4999ZM4.375 15.0002C4.375 16.0357 5.21447 16.8752 6.25 16.8752H15.4167C15.5317 16.8752 15.625 16.7819 15.625 16.6668V13.1252H6.25C5.21447 13.1252 4.375 13.9646 4.375 15.0002Z" fill="black"/>
</svg>
