<svg width="32" height="32" viewBox="0 0 32 32" fill="none" xmlns="http://www.w3.org/2000/svg">
<path fill-rule="evenodd" clip-rule="evenodd" d="M0 16C0 7.16344 7.16344 0 16 0C24.8366 0 32 7.16344 32 16C32 24.8366 24.8366 32 16 32C7.16344 32 0 24.8366 0 16ZM25.0573 12.908C25.1714 10.4072 24.2408 9.12793 22.268 9.07014C19.6072 8.98445 17.8045 10.4854 16.8606 13.5755C17.3482 13.3665 17.8222 13.2607 18.2818 13.2607C19.2582 13.2607 19.6891 13.8098 19.5742 14.9051C19.5162 15.5689 19.0853 16.5347 18.2818 17.8038C17.4768 19.0737 16.8728 19.7083 16.4714 19.7083C15.954 19.7083 15.4799 18.7308 15.0486 16.7738C14.9038 16.1997 14.6455 14.7328 14.2724 12.374C13.9272 10.188 13.0075 9.16689 11.5139 9.31059C10.8815 9.36837 9.93214 9.94292 8.66835 11.0345C7.74885 11.8681 6.81429 12.7005 5.86667 13.5328L6.76956 14.6961C7.63017 14.0943 8.13277 13.7921 8.27646 13.7921C8.93581 13.7921 9.55176 14.8258 10.1265 16.8911C10.6433 18.7853 11.1594 20.6792 11.6759 22.5733C12.4498 24.6397 13.3967 25.6721 14.5164 25.6721C16.3224 25.6721 18.5311 23.9755 21.1415 20.5837C23.6667 17.3355 24.9719 14.7769 25.0573 12.908Z" fill="white"/>
</svg>
