<svg width="32" height="32" viewBox="0 0 32 32" fill="none" xmlns="http://www.w3.org/2000/svg">
<path fill-rule="evenodd" clip-rule="evenodd" d="M0 16C0 7.16344 7.16344 0 16 0C24.8366 0 32 7.16344 32 16C32 24.8366 24.8366 32 16 32C7.16344 32 0 24.8366 0 16ZM24.1767 12.0488C23.9804 11.2948 23.4021 10.7011 22.6677 10.4996C21.3369 10.1333 16 10.1333 16 10.1333C16 10.1333 10.6631 10.1333 9.33217 10.4996C8.59782 10.7011 8.01949 11.2948 7.82322 12.0488C7.46667 13.4154 7.46667 16.2667 7.46667 16.2667C7.46667 16.2667 7.46667 19.1179 7.82322 20.4845C8.01949 21.2385 8.59782 21.8323 9.33217 22.0339C10.6631 22.4 16 22.4 16 22.4C16 22.4 21.3369 22.4 22.6677 22.0339C23.4021 21.8323 23.9804 21.2385 24.1767 20.4845C24.5333 19.1179 24.5333 16.2667 24.5333 16.2667C24.5333 16.2667 24.5333 13.4154 24.1767 12.0488Z" fill="white"/>
<path fill-rule="evenodd" clip-rule="evenodd" d="M14.4 19.2V13.8667L18.6666 16.5335L14.4 19.2Z" fill="white"/>
</svg>
